<svg width="80" height="81" viewBox="0 0 80 81" fill="none" xmlns="http://www.w3.org/2000/svg">
<path d="M78.6667 40.3334C78.6667 61.6884 61.3551 79.0001 40.0001 79.0001C18.6451 79.0001 1.33339 61.6884 1.33339 40.3334C1.33339 18.9784 18.6451 1.66677 40.0001 1.66677C61.3551 1.66677 78.6667 18.9784 78.6667 40.3334Z" stroke="#2AC96F" stroke-width="2.66667"/>
<path d="M51.6667 38.6667H31.9L37.95 31.4C38.2329 31.0597 38.369 30.6209 38.3284 30.1801C38.2878 29.7394 38.0737 29.3329 37.7334 29.05C37.393 28.7671 36.9542 28.631 36.5135 28.6716C36.0728 28.7123 35.6663 28.9263 35.3834 29.2667L27.05 39.2667C26.994 39.3462 26.9438 39.4298 26.9 39.5167C26.9 39.6 26.9 39.65 26.7834 39.7333C26.7078 39.9244 26.6683 40.1279 26.6667 40.3333C26.6683 40.5388 26.7078 40.7423 26.7834 40.9333C26.7834 41.0167 26.7834 41.0667 26.9 41.15C26.9438 41.2369 26.994 41.3205 27.05 41.4L35.3834 51.4C35.5401 51.5882 35.7363 51.7395 35.9581 51.8432C36.1799 51.9469 36.4218 52.0004 36.6667 52C37.0561 52.0008 37.4335 51.8652 37.7334 51.6167C37.9021 51.4768 38.0416 51.3049 38.1439 51.111C38.2461 50.9171 38.3091 50.7049 38.3292 50.4866C38.3494 50.2683 38.3262 50.0482 38.2612 49.8389C38.1961 49.6295 38.0904 49.4351 37.95 49.2667L31.9 42H51.6667C52.1087 42 52.5326 41.8244 52.8452 41.5119C53.1578 41.1993 53.3334 40.7754 53.3334 40.3333C53.3334 39.8913 53.1578 39.4674 52.8452 39.1548C52.5326 38.8423 52.1087 38.6667 51.6667 38.6667Z" fill="#2AC96F"/>
</svg>
