<svg width="198" height="198" viewBox="0 0 198 198" fill="none" xmlns="http://www.w3.org/2000/svg">
<g filter="url(#filter0_d_11_50)">
<ellipse cx="98.6667" cy="80.3334" rx="40" ry="40" fill="#F53838"/>
<path d="M137.333 80.3334C137.333 101.688 120.022 119 98.6667 119C77.3117 119 60 101.688 60 80.3334C60 58.9784 77.3117 41.6668 98.6667 41.6668C120.022 41.6668 137.333 58.9784 137.333 80.3334Z" stroke="#F53838" stroke-width="2.66667"/>
</g>
<path d="M87 78.6667H106.767L100.717 71.4C100.434 71.0597 100.298 70.6209 100.338 70.1801C100.379 69.7394 100.593 69.3329 100.933 69.05C101.274 68.7671 101.712 68.631 102.153 68.6716C102.594 68.7123 103 68.9263 103.283 69.2667L111.617 79.2667C111.673 79.3462 111.723 79.4298 111.767 79.5167C111.767 79.6 111.767 79.65 111.883 79.7333C111.959 79.9244 111.998 80.1279 112 80.3333C111.998 80.5388 111.959 80.7423 111.883 80.9333C111.883 81.0167 111.883 81.0667 111.767 81.15C111.723 81.2369 111.673 81.3205 111.617 81.4L103.283 91.4C103.127 91.5882 102.93 91.7395 102.709 91.8432C102.487 91.9469 102.245 92.0004 102 92C101.611 92.0008 101.233 91.8652 100.933 91.6167C100.765 91.4768 100.625 91.3049 100.523 91.111C100.421 90.9171 100.358 90.7049 100.337 90.4866C100.317 90.2683 100.34 90.0482 100.406 89.8389C100.471 89.6295 100.576 89.4351 100.717 89.2667L106.767 82H87C86.558 82 86.134 81.8244 85.8215 81.5119C85.5089 81.1993 85.3333 80.7754 85.3333 80.3333C85.3333 79.8913 85.5089 79.4674 85.8215 79.1548C86.134 78.8423 86.558 78.6667 87 78.6667Z" fill="white"/>
<defs>
<filter id="filter0_d_11_50" x="1.14441e-05" y="0.333429" width="197.333" height="197.333" filterUnits="userSpaceOnUse" color-interpolation-filters="sRGB">
<feFlood flood-opacity="0" result="BackgroundImageFix"/>
<feColorMatrix in="SourceAlpha" type="matrix" values="0 0 0 0 0 0 0 0 0 0 0 0 0 0 0 0 0 0 127 0" result="hardAlpha"/>
<feOffset dy="18.6667"/>
<feGaussianBlur stdDeviation="29.3333"/>
<feColorMatrix type="matrix" values="0 0 0 0 0.0561111 0 0 0 0 0.0777333 0 0 0 0 0.133333 0 0 0 0.08 0"/>
<feBlend mode="normal" in2="BackgroundImageFix" result="effect1_dropShadow_11_50"/>
<feBlend mode="normal" in="SourceGraphic" in2="effect1_dropShadow_11_50" result="shape"/>
</filter>
</defs>
</svg>
