<svg width="22" height="23" viewBox="0 0 22 23" fill="none" xmlns="http://www.w3.org/2000/svg">
<path d="M19.5854 8.22018L14.2959 7.45143L11.9313 2.65768C11.8667 2.52643 11.7604 2.42018 11.6292 2.35559C11.3 2.19309 10.9 2.32851 10.7354 2.65768L8.37086 7.45143L3.08128 8.22018C2.93545 8.24101 2.80211 8.30976 2.70003 8.41393C2.57662 8.54077 2.50861 8.71143 2.51095 8.88839C2.5133 9.06535 2.5858 9.23414 2.71253 9.35768L6.53961 13.0889L5.63545 18.3577C5.61424 18.4802 5.62781 18.6063 5.6746 18.7215C5.72139 18.8368 5.79953 18.9366 5.90017 19.0097C6.00081 19.0828 6.11992 19.1262 6.24399 19.1351C6.36805 19.1439 6.49212 19.1178 6.60211 19.0598L11.3334 16.5723L16.0646 19.0598C16.1938 19.1285 16.3438 19.1514 16.4875 19.1264C16.85 19.0639 17.0938 18.7202 17.0313 18.3577L16.1271 13.0889L19.9542 9.35768C20.0584 9.25559 20.1271 9.12226 20.1479 8.97643C20.2042 8.61184 19.95 8.27434 19.5854 8.22018V8.22018Z" fill="#FEA250"/>
</svg>
