<svg width="22" height="23" viewBox="0 0 22 23" fill="none" xmlns="http://www.w3.org/2000/svg">
<path d="M19.5854 8.22015L14.2958 7.4514L11.9312 2.65765C11.8667 2.5264 11.7604 2.42015 11.6292 2.35556C11.3 2.19306 10.9 2.32848 10.7354 2.65765L8.37083 7.4514L3.08125 8.22015C2.93542 8.24098 2.80208 8.30973 2.7 8.4139C2.57659 8.54074 2.50858 8.7114 2.51092 8.88836C2.51327 9.06532 2.58577 9.23411 2.7125 9.35765L6.53958 13.0889L5.63541 18.3576C5.61421 18.4802 5.62777 18.6063 5.67456 18.7215C5.72136 18.8368 5.7995 18.9366 5.90014 19.0097C6.00078 19.0828 6.11989 19.1262 6.24396 19.1351C6.36802 19.1439 6.49209 19.1178 6.60208 19.0597L11.3333 16.5722L16.0646 19.0597C16.1937 19.1285 16.3437 19.1514 16.4875 19.1264C16.85 19.0639 17.0937 18.7201 17.0312 18.3576L16.1271 13.0889L19.9542 9.35765C20.0583 9.25556 20.1271 9.12223 20.1479 8.9764C20.2042 8.61181 19.95 8.27431 19.5854 8.22015V8.22015Z" fill="#FEA250"/>
</svg>
