<svg width="32" height="33" viewBox="0 0 32 33" fill="none" xmlns="http://www.w3.org/2000/svg">
<path fill-rule="evenodd" clip-rule="evenodd" d="M16 15.1324C17.273 15.1324 18.4939 14.6266 19.3941 13.7265C20.2943 12.8263 20.8 11.6054 20.8 10.3323C20.8 9.05931 20.2943 7.83841 19.3941 6.93824C18.4939 6.03806 17.273 5.53235 16 5.53235C14.7269 5.53235 13.5061 6.03806 12.6059 6.93824C11.7057 7.83841 11.2 9.05931 11.2 10.3323C11.2 11.6054 11.7057 12.8263 12.6059 13.7265C13.5061 14.6266 14.7269 15.1324 16 15.1324ZM9.19819 29.5323C6.76913 29.5323 4.72298 27.4905 5.65254 25.2463V25.2463C6.21539 23.8874 7.04038 22.6528 8.08039 21.6128C9.12041 20.5727 10.3551 19.7478 11.7139 19.1849C13.0728 18.622 14.5292 18.3323 16 18.3323C17.4708 18.3323 18.9272 18.622 20.286 19.1849C21.6449 19.7478 22.8796 20.5727 23.9196 21.6128C24.9596 22.6528 25.7846 23.8874 26.3474 25.2463V25.2463C27.277 27.4905 25.2308 29.5323 22.8018 29.5323H9.19819Z" fill="#2AC96F"/>
</svg>
