<svg width="33" height="33" viewBox="0 0 33 33" fill="none" xmlns="http://www.w3.org/2000/svg">
<path d="M26 12.7324C26 11.5067 25.7586 10.293 25.2895 9.16067C24.8205 8.0283 24.133 6.9994 23.2663 6.13272C22.3996 5.26604 21.3707 4.57855 20.2384 4.10951C19.106 3.64046 17.8923 3.39905 16.6667 3.39905C15.441 3.39905 14.2273 3.64046 13.0949 4.10951C11.9626 4.57855 10.9337 5.26604 10.067 6.13272C9.20032 6.9994 8.51283 8.0283 8.04379 9.16067C7.57474 10.293 7.33333 11.5067 7.33333 12.7324C7.33333 14.5817 7.87999 16.3017 8.80666 17.7524H8.79599C11.9427 22.679 16.6667 30.0657 16.6667 30.0657L24.5373 17.7524H24.528C25.4885 16.2542 25.9994 14.512 26 12.7324V12.7324ZM16.6667 16.7324C15.6058 16.7324 14.5884 16.311 13.8382 15.5608C13.0881 14.8107 12.6667 13.7932 12.6667 12.7324C12.6667 11.6715 13.0881 10.6541 13.8382 9.90395C14.5884 9.15381 15.6058 8.73238 16.6667 8.73238C17.7275 8.73238 18.7449 9.15381 19.4951 9.90395C20.2452 10.6541 20.6667 11.6715 20.6667 12.7324C20.6667 13.7932 20.2452 14.8107 19.4951 15.5608C18.7449 16.311 17.7275 16.7324 16.6667 16.7324Z" fill="#2AC96F"/>
</svg>
