<svg width="33" height="32" viewBox="0 0 33 32" fill="none" xmlns="http://www.w3.org/2000/svg">
<path d="M16.3333 2.66663C8.98134 2.66663 3 8.64796 3 16C3 23.352 8.98134 29.3333 16.3333 29.3333C23.6853 29.3333 29.6667 23.352 29.6667 16C29.6667 8.64796 23.6853 2.66663 16.3333 2.66663ZM13.668 21.884L9.6606 17.8852C9.1396 17.3653 9.13855 16.5216 9.65825 16.0004V16.0004C10.1783 15.4789 11.0227 15.4779 11.5439 15.9982L13.6653 18.116L19.7813 12C20.302 11.4793 21.146 11.4793 21.6667 12V12C22.1873 12.5206 22.1873 13.3647 21.6667 13.8853L13.668 21.884Z" fill="#2FAB73"/>
</svg>
