<svg width="33" height="33" viewBox="0 0 33 33" fill="none" xmlns="http://www.w3.org/2000/svg">
<path d="M16.3333 3.33337C8.98134 3.33337 3 9.31471 3 16.6667C3 24.0187 8.98134 30 16.3333 30C23.6853 30 29.6667 24.0187 29.6667 16.6667C29.6667 9.31471 23.6853 3.33337 16.3333 3.33337ZM13.668 22.5507L9.6606 18.5519C9.1396 18.0321 9.13855 17.1883 9.65825 16.6671V16.6671C10.1783 16.1456 11.0227 16.1447 11.5439 16.665L13.6653 18.7827L19.7813 12.6667C20.302 12.1461 21.146 12.1461 21.6667 12.6667V12.6667C22.1873 13.1873 22.1873 14.0314 21.6667 14.552L13.668 22.5507Z" fill="#2FAB73"/>
</svg>
