<svg width="33" height="33" viewBox="0 0 33 33" fill="none" xmlns="http://www.w3.org/2000/svg">
<path d="M16.3333 2.99994C8.98134 2.99994 3 8.98127 3 16.3333C3 23.6853 8.98134 29.6666 16.3333 29.6666C23.6853 29.6666 29.6667 23.6853 29.6667 16.3333C29.6667 8.98127 23.6853 2.99994 16.3333 2.99994ZM13.668 22.2173L9.6606 18.2185C9.1396 17.6986 9.13855 16.8549 9.65825 16.3337V16.3337C10.1783 15.8122 11.0227 15.8112 11.5439 16.3315L13.6653 18.4493L19.7813 12.3333C20.302 11.8127 21.146 11.8127 21.6667 12.3333V12.3333C22.1873 12.8539 22.1873 13.698 21.6667 14.2186L13.668 22.2173Z" fill="#2FAB73"/>
</svg>
