<svg width="74" height="74" viewBox="0 0 74 74" fill="none" xmlns="http://www.w3.org/2000/svg">
<rect x="0.666626" y="0.0656738" width="73.3333" height="73.3333" rx="36.6667" fill="#FFECEC"/>
<path d="M48 24.7324H26.6667C25.9594 24.7324 25.2811 25.0134 24.781 25.5135C24.281 26.0136 24 26.6918 24 27.3991V32.7324C24 33.4397 24.281 34.1179 24.781 34.618C25.2811 35.1181 25.9594 35.3991 26.6667 35.3991H48C48.7072 35.3991 49.3855 35.1181 49.8856 34.618C50.3857 34.1179 50.6667 33.4397 50.6667 32.7324V27.3991C50.6667 26.6918 50.3857 26.0136 49.8856 25.5135C49.3855 25.0134 48.7072 24.7324 48 24.7324ZM41.3333 30.0658C41.3333 30.8021 40.7364 31.3991 40 31.3991V31.3991C39.2636 31.3991 38.6667 30.8021 38.6667 30.0658V30.0658C38.6667 29.3294 39.2636 28.7324 40 28.7324V28.7324C40.7364 28.7324 41.3333 29.3294 41.3333 30.0658V30.0658ZM46.6667 30.0658C46.6667 30.8021 46.0697 31.3991 45.3333 31.3991V31.3991C44.597 31.3991 44 30.8021 44 30.0658V30.0658C44 29.3294 44.597 28.7324 45.3333 28.7324V28.7324C46.0697 28.7324 46.6667 29.3294 46.6667 30.0658V30.0658ZM48 38.0658H26.6667C25.9594 38.0658 25.2811 38.3467 24.781 38.8468C24.281 39.3469 24 40.0252 24 40.7324V46.0658C24 46.773 24.281 47.4513 24.781 47.9514C25.2811 48.4515 25.9594 48.7324 26.6667 48.7324H48C48.7072 48.7324 49.3855 48.4515 49.8856 47.9514C50.3857 47.4513 50.6667 46.773 50.6667 46.0658V40.7324C50.6667 40.0252 50.3857 39.3469 49.8856 38.8468C49.3855 38.3467 48.7072 38.0658 48 38.0658ZM41.3333 43.3991C41.3333 44.1355 40.7364 44.7324 40 44.7324V44.7324C39.2636 44.7324 38.6667 44.1355 38.6667 43.3991V43.3991C38.6667 42.6627 39.2636 42.0658 40 42.0658V42.0658C40.7364 42.0658 41.3333 42.6627 41.3333 43.3991V43.3991ZM46.6667 43.3991C46.6667 44.1355 46.0697 44.7324 45.3333 44.7324V44.7324C44.597 44.7324 44 44.1355 44 43.3991V43.3991C44 42.6627 44.597 42.0658 45.3333 42.0658V42.0658C46.0697 42.0658 46.6667 42.6627 46.6667 43.3991V43.3991Z" fill="#2AC96F"/>
</svg>
